<svg width="128" height="128" viewBox="0 0 128 128" fill="none" xmlns="http://www.w3.org/2000/svg">
<g clip-path="url(#clip0_0_1)">
<path d="M64 0C76.658 0 89.0318 3.75353 99.5565 10.7859C110.081 17.8184 118.284 27.8138 123.128 39.5083C127.972 51.2027 129.24 64.071 126.77 76.4858C124.301 88.9006 118.205 100.304 109.255 109.255C100.304 118.205 88.9006 124.301 76.4858 126.77C64.071 129.24 51.2027 127.972 39.5083 123.128C27.8138 118.284 17.8184 110.081 10.7859 99.5565C3.75353 89.0318 0 76.658 0 64C0.0185318 47.0318 6.76732 30.7639 18.7656 18.7656C30.7639 6.76732 47.0318 0.0185286 64 0ZM64 122C75.4713 122 86.685 118.598 96.2231 112.225C105.761 105.852 113.195 96.7938 117.585 86.1956C121.975 75.5975 123.123 63.9357 120.886 52.6848C118.648 41.4339 113.124 31.0993 105.012 22.9878C96.9007 14.8764 86.5661 9.3524 75.3152 7.11445C64.0643 4.87651 52.4025 6.0251 41.8044 10.415C31.2062 14.8049 22.1479 22.2389 15.7748 31.7769C9.40164 41.315 6 52.5287 6 64C6.01852 79.3769 12.1352 94.1186 23.0083 104.992C33.8814 115.865 48.6231 121.981 64 122Z" fill="white"/>
<path d="M73.1774 36.8634C72.6499 36.3105 71.935 36 71.1895 36C70.4441 36 69.7291 36.3105 69.2017 36.8634L44.8227 62.4493C44.2959 63.0028 44 63.7532 44 64.5355C44 65.3179 44.2959 66.0682 44.8227 66.6218L69.2017 92.2077C69.735 92.7291 70.4402 93.013 71.169 92.9995C71.8977 92.986 72.5931 92.6762 73.1084 92.1353C73.6238 91.5944 73.919 90.8647 73.9319 90.0999C73.9448 89.335 73.6743 88.5948 73.1774 88.0352L50.7862 64.5355L73.1774 41.0359C73.7041 40.4823 74 39.732 74 38.9496C74 38.1673 73.7041 37.4169 73.1774 36.8634Z" fill="white"/>
</g>
<defs>
<clipPath id="clip0_0_1">
<rect width="128" height="128" fill="white"/>
</clipPath>
</defs>
</svg>
