<svg width="128" height="128" viewBox="0 0 128 128" fill="none" xmlns="http://www.w3.org/2000/svg">
<g clip-path="url(#clip0_0_1)">
<path d="M64 0C51.342 0 38.9683 3.75353 28.4435 10.7859C17.9188 17.8184 9.71575 27.8138 4.87174 39.5083C0.02773 51.2027 -1.23968 64.071 1.22977 76.4858C3.69922 88.9006 9.79463 100.304 18.7452 109.255C27.6958 118.205 39.0995 124.301 51.5143 126.77C63.929 129.24 76.7973 127.972 88.4918 123.128C100.186 118.284 110.182 110.081 117.214 99.5565C124.246 89.0318 128 76.658 128 64C127.981 47.0318 121.233 30.7639 109.234 18.7656C97.2361 6.76732 80.9682 0.0185286 64 0ZM64 122C52.5287 122 41.315 118.598 31.777 112.225C22.2389 105.852 14.8049 96.7938 10.415 86.1956C6.02513 75.5975 4.87654 63.9357 7.11448 52.6848C9.35242 41.4339 14.8764 31.0993 22.9878 22.9878C31.0993 14.8764 41.4339 9.3524 52.6848 7.11445C63.9357 4.87651 75.5976 6.0251 86.1957 10.415C96.7938 14.8049 105.852 22.2389 112.225 31.7769C118.598 41.315 122 52.5287 122 64C121.982 79.3769 115.865 94.1186 104.992 104.992C94.1187 115.865 79.3769 121.981 64 122Z" fill="white"/>
<path d="M54.8227 36.8634C55.3501 36.3105 56.0651 36 56.8105 36C57.5559 36 58.2709 36.3105 58.7983 36.8634L83.1773 62.4493C83.7041 63.0028 84 63.7532 84 64.5355C84 65.3179 83.7041 66.0682 83.1773 66.6218L58.7983 92.2077C58.2651 92.7291 57.5598 93.013 56.831 92.9995C56.1023 92.986 55.407 92.6762 54.8916 92.1353C54.3762 91.5944 54.081 90.8647 54.0681 90.0999C54.0553 89.335 54.3258 88.5948 54.8227 88.0352L77.2139 64.5355L54.8227 41.0359C54.2959 40.4823 54 39.732 54 38.9496C54 38.1673 54.2959 37.4169 54.8227 36.8634Z" fill="white"/>
</g>
<defs>
<clipPath id="clip0_0_1">
<rect width="128" height="128" fill="white"/>
</clipPath>
</defs>
</svg>
