<svg width="64" height="64" viewBox="0 0 64 64" fill="none" xmlns="http://www.w3.org/2000/svg">
<g clip-path="url(#clip0_0_1)">
<path fill-rule="evenodd" clip-rule="evenodd" d="M39.94 44.142C36.553 46.649 47.085 35.879 44.088 39.973C44.163 39.967 44.024 40.194 43.558 40.763C43.558 40.763 51.562 48.713 55.491 52.759C56.855 54.234 54.394 57.178 52.722 55.641C49.164 52.189 40.745 43.61 40.732 43.596L39.94 44.142Z" fill="#C6C4C4"/>
<path d="M28.179 48.162C33.329 48.112 38.427 45.979 42.093 42.356C46.447 38.053 48.689 31.687 47.907 25.609C46.567 15.194 38.005 8.126 28.051 8.126C20.488 8.126 13.138 12.857 9.914 19.717C7.446 24.969 7.441 31.31 9.914 36.571C13.115 43.383 20.345 48.089 27.922 48.162C28.008 48.162 28.094 48.162 28.179 48.162ZM27.943 44.825C20.252 44.751 13.076 38.803 11.649 31.177C10.643 25.801 12.542 19.983 16.498 16.165C21.116 11.706 28.375 10.213 34.411 12.74C39.811 15.001 43.853 20.251 44.598 26.035C45.236 30.993 43.457 36.189 39.961 39.768C36.894 42.908 32.593 44.782 28.158 44.825C28.086 44.825 28.015 44.825 27.943 44.825Z" fill="#C6C4C4"/>
</g>
<defs>
<clipPath id="clip0_0_1">
<rect width="64" height="64" fill="white"/>
</clipPath>
</defs>
</svg>
