<svg width="800" height="800" viewBox="0 0 800 800" fill="none" xmlns="http://www.w3.org/2000/svg">
<g clip-path="url(#clip0_0_1)">
<path d="M400 0.0175781C179.109 0.0175781 0 179.092 0 400C0 620.908 179.092 799.982 400 799.982C620.926 799.982 800 620.908 800 400C800 179.092 620.926 0.0175781 400 0.0175781ZM400 119.617C473.091 119.617 532.32 178.863 532.32 251.92C532.32 324.993 473.091 384.222 400 384.222C326.944 384.222 267.715 324.993 267.715 251.92C267.715 178.863 326.944 119.617 400 119.617ZM399.912 695.405C327.014 695.405 260.248 668.857 208.75 624.914C196.205 614.214 188.966 598.524 188.966 582.061C188.966 507.968 248.933 448.669 323.043 448.669H476.992C551.12 448.669 610.858 507.968 610.858 582.061C610.858 598.542 603.655 614.197 591.092 624.897C539.612 668.857 472.828 695.405 399.912 695.405Z" fill="white"/>
</g>
<defs>
<clipPath id="clip0_0_1">
<rect width="800" height="800" fill="white"/>
</clipPath>
</defs>
</svg>
